<svg width="177" height="160" viewBox="0 0 177 160" fill="none" xmlns="http://www.w3.org/2000/svg">
<path d="M122.262 153.216C119.929 149.036 119.843 147.585 119.841 147.547C119.839 147.323 119.658 147.142 119.433 147.141C119.432 147.141 119.431 147.141 119.431 147.141C119.317 147.141 119.214 147.188 119.139 147.263C119.061 147.335 119.007 147.433 119.004 147.547C119.003 147.561 118.936 148.999 116.583 153.216C116.583 153.217 116.583 153.218 116.582 153.218C116.582 153.219 116.582 153.219 116.581 153.22C116.186 153.945 115.733 154.902 115.733 155.869C115.733 158.147 117.388 160 119.423 160C121.457 160 123.112 158.147 123.112 155.869C123.112 154.902 122.659 153.945 122.264 153.22C122.264 153.219 122.263 153.219 122.263 153.218C122.263 153.217 122.263 153.217 122.262 153.216ZM119.423 159.179C117.841 159.179 116.555 157.694 116.555 155.869C116.555 155.089 116.953 154.256 117.3 153.616C118.46 151.54 119.083 150.115 119.423 149.165C119.762 150.115 120.386 151.539 121.545 153.616C121.893 154.256 122.291 155.089 122.291 155.869C122.291 157.694 121.004 159.179 119.423 159.179Z" fill="white" fill-opacity="0.7"/>
<path d="M152.262 140.216C149.929 136.036 149.843 134.585 149.841 134.547C149.839 134.323 149.658 134.142 149.433 134.141C149.432 134.141 149.431 134.141 149.431 134.141C149.317 134.141 149.214 134.188 149.139 134.263C149.061 134.335 149.007 134.433 149.004 134.547C149.003 134.561 148.936 135.999 146.583 140.216C146.583 140.217 146.583 140.218 146.582 140.218C146.582 140.219 146.582 140.219 146.581 140.22C146.186 140.945 145.733 141.902 145.733 142.869C145.733 145.147 147.388 147 149.423 147C151.457 147 153.112 145.147 153.112 142.869C153.112 141.902 152.659 140.945 152.264 140.22C152.264 140.219 152.263 140.219 152.263 140.218C152.263 140.217 152.263 140.217 152.262 140.216ZM149.423 146.179C147.841 146.179 146.555 144.694 146.555 142.869C146.555 142.089 146.953 141.256 147.3 140.616C148.46 138.54 149.083 137.115 149.423 136.165C149.762 137.115 150.386 138.539 151.545 140.616C151.893 141.256 152.291 142.089 152.291 142.869C152.291 144.694 151.004 146.179 149.423 146.179Z" fill="white" fill-opacity="0.7"/>
<path d="M101.262 143.216C98.9292 139.036 98.8429 137.585 98.8415 137.547C98.839 137.323 98.6578 137.142 98.433 137.141C98.4322 137.141 98.4313 137.141 98.4305 137.141C98.3166 137.141 98.2136 137.188 98.1393 137.263C98.0606 137.335 98.0074 137.433 98.0038 137.547C98.0034 137.561 97.9363 138.999 95.5831 143.216C95.5827 143.217 95.5827 143.218 95.5823 143.218C95.5819 143.219 95.5815 143.219 95.5809 143.22C95.1864 143.945 94.7328 144.902 94.7328 145.869C94.7331 148.147 96.3883 150 98.4226 150C100.457 150 102.112 148.147 102.112 145.869C102.112 144.902 101.659 143.945 101.264 143.22C101.264 143.219 101.263 143.219 101.263 143.218C101.263 143.217 101.263 143.217 101.262 143.216ZM98.4226 149.179C96.8411 149.179 95.5547 147.694 95.5547 145.869C95.5547 145.089 95.9526 144.256 96.3004 143.616C97.4596 141.54 98.0832 140.115 98.4226 139.165C98.762 140.115 99.3856 141.539 100.545 143.616C100.893 144.256 101.291 145.089 101.291 145.869C101.291 147.694 100.004 149.179 98.4226 149.179Z" fill="white" fill-opacity="0.7"/>
<path d="M131.262 130.216C128.929 126.036 128.843 124.585 128.841 124.547C128.839 124.323 128.658 124.142 128.433 124.141C128.432 124.141 128.431 124.141 128.431 124.141C128.317 124.141 128.214 124.188 128.139 124.263C128.061 124.335 128.007 124.433 128.004 124.547C128.003 124.561 127.936 125.999 125.583 130.216C125.583 130.217 125.583 130.218 125.582 130.218C125.582 130.219 125.582 130.219 125.581 130.22C125.186 130.945 124.733 131.902 124.733 132.869C124.733 135.147 126.388 137 128.423 137C130.457 137 132.112 135.147 132.112 132.869C132.112 131.902 131.659 130.945 131.264 130.22C131.264 130.219 131.263 130.219 131.263 130.218C131.263 130.217 131.263 130.217 131.262 130.216ZM128.423 136.179C126.841 136.179 125.555 134.694 125.555 132.869C125.555 132.089 125.953 131.256 126.3 130.616C127.46 128.54 128.083 127.115 128.423 126.165C128.762 127.115 129.386 128.539 130.545 130.616C130.893 131.256 131.291 132.089 131.291 132.869C131.291 134.694 130.004 136.179 128.423 136.179Z" fill="white" fill-opacity="0.7"/>
<path d="M79.2621 130.216C76.9292 126.036 76.8429 124.585 76.8415 124.547C76.839 124.323 76.6578 124.142 76.433 124.141C76.4322 124.141 76.4313 124.141 76.4305 124.141C76.3166 124.141 76.2136 124.188 76.1393 124.263C76.0606 124.335 76.0074 124.433 76.0038 124.547C76.0034 124.561 75.9363 125.999 73.5831 130.216C73.5827 130.217 73.5827 130.218 73.5823 130.218C73.5819 130.219 73.5815 130.219 73.5809 130.22C73.1864 130.945 72.7328 131.902 72.7328 132.869C72.7331 135.147 74.3883 137 76.4226 137C78.4569 137 80.1122 135.147 80.1122 132.869C80.1122 131.902 79.6588 130.945 79.2641 130.22C79.2637 130.219 79.2633 130.219 79.2629 130.218C79.2625 130.217 79.2625 130.217 79.2621 130.216ZM76.4226 136.179C74.8411 136.179 73.5547 134.694 73.5547 132.869C73.5547 132.089 73.9526 131.256 74.3004 130.616C75.4596 128.54 76.0832 127.115 76.4226 126.165C76.762 127.115 77.3856 128.539 78.5449 130.616C78.8926 131.256 79.2905 132.089 79.2905 132.869C79.2905 134.694 78.0041 136.179 76.4226 136.179Z" fill="white" fill-opacity="0.7"/>
<path d="M6.16016 111.576L6.48828 113.826L6.96875 111.799L10.3438 99.8926H12.2422L15.5352 111.799L16.0039 113.861L16.3672 111.564L19.0156 99.8926H21.2773L17.1406 116.955H15.0898L11.5742 104.522L11.3047 103.221L11.0352 104.522L7.39062 116.955H5.33984L1.21484 99.8926H3.46484L6.16016 111.576ZM28.332 117.189C26.6133 117.189 25.2148 116.627 24.1367 115.502C23.0586 114.369 22.5195 112.857 22.5195 110.967V110.568C22.5195 109.311 22.7578 108.189 23.2344 107.205C23.7188 106.213 24.3906 105.439 25.25 104.885C26.1172 104.322 27.0547 104.041 28.0625 104.041C29.7109 104.041 30.9922 104.584 31.9062 105.67C32.8203 106.756 33.2773 108.311 33.2773 110.334V111.236H24.6875C24.7188 112.486 25.082 113.498 25.7773 114.272C26.4805 115.037 27.3711 115.42 28.4492 115.42C29.2148 115.42 29.8633 115.264 30.3945 114.951C30.9258 114.639 31.3906 114.225 31.7891 113.709L33.1133 114.74C32.0508 116.373 30.457 117.189 28.332 117.189ZM28.0625 105.822C27.1875 105.822 26.4531 106.143 25.8594 106.783C25.2656 107.416 24.8984 108.307 24.7578 109.455H31.1094V109.291C31.0469 108.189 30.75 107.338 30.2188 106.736C29.6875 106.127 28.9688 105.822 28.0625 105.822ZM43.625 116.955C43.5 116.705 43.3984 116.26 43.3203 115.619C42.3125 116.666 41.1094 117.189 39.7109 117.189C38.4609 117.189 37.4336 116.838 36.6289 116.135C35.832 115.424 35.4336 114.525 35.4336 113.439C35.4336 112.119 35.9336 111.096 36.9336 110.369C37.9414 109.635 39.3555 109.268 41.1758 109.268H43.2852V108.272C43.2852 107.514 43.0586 106.912 42.6055 106.467C42.1523 106.014 41.4844 105.787 40.6016 105.787C39.8281 105.787 39.1797 105.982 38.6562 106.373C38.1328 106.764 37.8711 107.236 37.8711 107.791H35.6914C35.6914 107.158 35.9141 106.549 36.3594 105.963C36.8125 105.369 37.4219 104.9 38.1875 104.557C38.9609 104.213 39.8086 104.041 40.7305 104.041C42.1914 104.041 43.3359 104.408 44.1641 105.143C44.9922 105.869 45.4219 106.873 45.4531 108.154V113.99C45.4531 115.154 45.6016 116.08 45.8984 116.768V116.955H43.625ZM40.0273 115.303C40.707 115.303 41.3516 115.127 41.9609 114.775C42.5703 114.424 43.0117 113.967 43.2852 113.404V110.803H41.5859C38.9297 110.803 37.6016 111.58 37.6016 113.135C37.6016 113.814 37.8281 114.346 38.2812 114.729C38.7344 115.111 39.3164 115.303 40.0273 115.303ZM51.793 101.205V104.275H54.1602V105.951H51.793V113.814C51.793 114.322 51.8984 114.705 52.1094 114.963C52.3203 115.213 52.6797 115.338 53.1875 115.338C53.4375 115.338 53.7812 115.291 54.2188 115.197V116.955C53.6484 117.111 53.0938 117.189 52.5547 117.189C51.5859 117.189 50.8555 116.897 50.3633 116.311C49.8711 115.725 49.625 114.893 49.625 113.814V105.951H47.3164V104.275H49.625V101.205H51.793ZM58.8711 105.811C59.832 104.631 61.082 104.041 62.6211 104.041C65.3008 104.041 66.6523 105.553 66.6758 108.576V116.955H64.5078V108.564C64.5 107.65 64.2891 106.975 63.875 106.537C63.4688 106.1 62.832 105.881 61.9648 105.881C61.2617 105.881 60.6445 106.068 60.1133 106.443C59.582 106.818 59.168 107.311 58.8711 107.92V116.955H56.7031V98.9551H58.8711V105.811ZM75.1836 117.189C73.4648 117.189 72.0664 116.627 70.9883 115.502C69.9102 114.369 69.3711 112.857 69.3711 110.967V110.568C69.3711 109.311 69.6094 108.189 70.0859 107.205C70.5703 106.213 71.2422 105.439 72.1016 104.885C72.9688 104.322 73.9062 104.041 74.9141 104.041C76.5625 104.041 77.8438 104.584 78.7578 105.67C79.6719 106.756 80.1289 108.311 80.1289 110.334V111.236H71.5391C71.5703 112.486 71.9336 113.498 72.6289 114.272C73.332 115.037 74.2227 115.42 75.3008 115.42C76.0664 115.42 76.7148 115.264 77.2461 114.951C77.7773 114.639 78.2422 114.225 78.6406 113.709L79.9648 114.74C78.9023 116.373 77.3086 117.189 75.1836 117.189ZM74.9141 105.822C74.0391 105.822 73.3047 106.143 72.7109 106.783C72.1172 107.416 71.75 108.307 71.6094 109.455H77.9609V109.291C77.8984 108.189 77.6016 107.338 77.0703 106.736C76.5391 106.127 75.8203 105.822 74.9141 105.822ZM88.7773 106.221C88.4492 106.166 88.0938 106.139 87.7109 106.139C86.2891 106.139 85.3242 106.744 84.8164 107.955V116.955H82.6484V104.275H84.7578L84.793 105.74C85.5039 104.607 86.5117 104.041 87.8164 104.041C88.2383 104.041 88.5586 104.096 88.7773 104.205V106.221ZM96.1484 109.35C94.2188 108.795 92.8125 108.115 91.9297 107.311C91.0547 106.498 90.6172 105.498 90.6172 104.311C90.6172 102.967 91.1523 101.857 92.2227 100.982C93.3008 100.1 94.6992 99.6582 96.418 99.6582C97.5898 99.6582 98.6328 99.8848 99.5469 100.338C100.469 100.791 101.18 101.416 101.68 102.213C102.188 103.01 102.441 103.881 102.441 104.826H100.18C100.18 103.795 99.8516 102.986 99.1953 102.4C98.5391 101.807 97.6133 101.51 96.418 101.51C95.3086 101.51 94.4414 101.756 93.8164 102.248C93.1992 102.732 92.8906 103.408 92.8906 104.275C92.8906 104.971 93.1836 105.561 93.7695 106.045C94.3633 106.522 95.3672 106.959 96.7812 107.357C98.2031 107.756 99.3125 108.197 100.109 108.682C100.914 109.158 101.508 109.717 101.891 110.357C102.281 110.998 102.477 111.752 102.477 112.619C102.477 114.002 101.938 115.111 100.859 115.947C99.7812 116.775 98.3398 117.189 96.5352 117.189C95.3633 117.189 94.2695 116.967 93.2539 116.522C92.2383 116.068 91.4531 115.451 90.8984 114.67C90.3516 113.889 90.0781 113.002 90.0781 112.01H92.3398C92.3398 113.041 92.7188 113.857 93.4766 114.459C94.2422 115.053 95.2617 115.35 96.5352 115.35C97.7227 115.35 98.6328 115.107 99.2656 114.623C99.8984 114.139 100.215 113.479 100.215 112.643C100.215 111.807 99.9219 111.162 99.3359 110.709C98.75 110.248 97.6875 109.795 96.1484 109.35ZM110.293 117.189C108.574 117.189 107.176 116.627 106.098 115.502C105.02 114.369 104.48 112.857 104.48 110.967V110.568C104.48 109.311 104.719 108.189 105.195 107.205C105.68 106.213 106.352 105.439 107.211 104.885C108.078 104.322 109.016 104.041 110.023 104.041C111.672 104.041 112.953 104.584 113.867 105.67C114.781 106.756 115.238 108.311 115.238 110.334V111.236H106.648C106.68 112.486 107.043 113.498 107.738 114.272C108.441 115.037 109.332 115.42 110.41 115.42C111.176 115.42 111.824 115.264 112.355 114.951C112.887 114.639 113.352 114.225 113.75 113.709L115.074 114.74C114.012 116.373 112.418 117.189 110.293 117.189ZM110.023 105.822C109.148 105.822 108.414 106.143 107.82 106.783C107.227 107.416 106.859 108.307 106.719 109.455H113.07V109.291C113.008 108.189 112.711 107.338 112.18 106.736C111.648 106.127 110.93 105.822 110.023 105.822ZM125.586 116.955C125.461 116.705 125.359 116.26 125.281 115.619C124.273 116.666 123.07 117.189 121.672 117.189C120.422 117.189 119.395 116.838 118.59 116.135C117.793 115.424 117.395 114.525 117.395 113.439C117.395 112.119 117.895 111.096 118.895 110.369C119.902 109.635 121.316 109.268 123.137 109.268H125.246V108.272C125.246 107.514 125.02 106.912 124.566 106.467C124.113 106.014 123.445 105.787 122.562 105.787C121.789 105.787 121.141 105.982 120.617 106.373C120.094 106.764 119.832 107.236 119.832 107.791H117.652C117.652 107.158 117.875 106.549 118.32 105.963C118.773 105.369 119.383 104.9 120.148 104.557C120.922 104.213 121.77 104.041 122.691 104.041C124.152 104.041 125.297 104.408 126.125 105.143C126.953 105.869 127.383 106.873 127.414 108.154V113.99C127.414 115.154 127.562 116.08 127.859 116.768V116.955H125.586ZM121.988 115.303C122.668 115.303 123.312 115.127 123.922 114.775C124.531 114.424 124.973 113.967 125.246 113.404V110.803H123.547C120.891 110.803 119.562 111.58 119.562 113.135C119.562 113.814 119.789 114.346 120.242 114.729C120.695 115.111 121.277 115.303 121.988 115.303ZM136.941 106.221C136.613 106.166 136.258 106.139 135.875 106.139C134.453 106.139 133.488 106.744 132.98 107.955V116.955H130.812V104.275H132.922L132.957 105.74C133.668 104.607 134.676 104.041 135.98 104.041C136.402 104.041 136.723 104.096 136.941 104.205V106.221ZM143.797 115.42C144.57 115.42 145.246 115.186 145.824 114.717C146.402 114.248 146.723 113.662 146.785 112.959H148.836C148.797 113.686 148.547 114.377 148.086 115.033C147.625 115.689 147.008 116.213 146.234 116.604C145.469 116.994 144.656 117.189 143.797 117.189C142.07 117.189 140.695 116.615 139.672 115.467C138.656 114.311 138.148 112.732 138.148 110.732V110.369C138.148 109.135 138.375 108.037 138.828 107.076C139.281 106.115 139.93 105.369 140.773 104.838C141.625 104.307 142.629 104.041 143.785 104.041C145.207 104.041 146.387 104.467 147.324 105.318C148.27 106.17 148.773 107.275 148.836 108.635H146.785C146.723 107.814 146.41 107.143 145.848 106.619C145.293 106.088 144.605 105.822 143.785 105.822C142.684 105.822 141.828 106.221 141.219 107.018C140.617 107.807 140.316 108.951 140.316 110.451V110.861C140.316 112.322 140.617 113.447 141.219 114.236C141.82 115.025 142.68 115.42 143.797 115.42ZM153.441 105.811C154.402 104.631 155.652 104.041 157.191 104.041C159.871 104.041 161.223 105.553 161.246 108.576V116.955H159.078V108.564C159.07 107.65 158.859 106.975 158.445 106.537C158.039 106.1 157.402 105.881 156.535 105.881C155.832 105.881 155.215 106.068 154.684 106.443C154.152 106.818 153.738 107.311 153.441 107.92V116.955H151.273V98.9551H153.441V105.811Z" fill="white"/>
<g clip-path="url(#clip0)">
<path d="M158.276 53.4317C158.276 48.4396 156.262 43.8316 152.905 40.5675C149.644 37.3035 145.04 35.1914 140.052 35.1914C136.695 35.1914 133.434 36.1514 130.653 37.7835C128.639 39.0315 126.816 40.6635 125.377 42.5835C124.994 42.2955 124.514 41.9115 124.131 41.6235C119.91 38.6475 114.827 37.0155 109.456 37.0155C103.125 37.0155 97.1785 39.3195 92.6705 43.2556C88.6421 46.7116 85.6687 51.5117 84.3259 56.9838C80.2016 57.4638 76.5568 59.2878 73.7753 62.0719C70.5142 65.3359 68.5 69.752 68.5 74.7441C68.5 79.6402 70.5142 84.1523 73.7753 87.4163C77.0364 90.6804 81.4485 92.6964 86.4361 92.6964H134.681C140.436 92.6004 145.52 90.3924 149.164 86.6483C152.809 83.0002 155.111 77.9121 155.111 72.2481C155.111 69.848 154.727 67.448 153.864 65.3359C155.111 63.8959 156.166 62.2639 156.837 60.5359C157.797 58.3278 158.276 55.8318 158.276 53.4317ZM145.424 83.5762C142.642 86.3603 138.806 88.0883 134.489 88.0883H86.6279C82.9831 87.7043 79.8179 86.2643 77.4201 83.8642C75.1181 81.5602 73.5835 78.2962 73.5835 74.7441C73.5835 71.192 75.0222 67.928 77.4201 65.6239C79.722 63.3199 82.9831 61.7839 86.532 61.7839C86.9156 61.7839 87.3952 61.6879 87.6829 61.4959C88.2584 61.1119 88.6421 60.5359 88.738 59.8638C89.5053 54.7758 92.095 50.3597 95.7398 47.1916C99.3845 44.0236 104.18 42.1995 109.36 42.1995C113.676 42.1995 117.8 43.5436 121.253 45.9436C123.939 47.7676 126.241 50.3597 127.775 53.3357C127.2 53.5277 126.72 53.7197 126.241 54.0077C123.651 55.1598 121.253 56.8878 119.335 59.0958C118.472 60.1518 118.567 61.6879 119.527 62.5519C120.582 63.4159 122.116 63.3199 122.98 62.3599C124.418 60.7279 126.241 59.3838 128.159 58.5198C130.077 57.6558 132.283 57.1758 134.489 57.1758C138.71 57.1758 142.642 58.9038 145.424 61.6879C148.205 64.4719 149.932 68.312 149.932 72.6321C149.932 76.9521 148.205 80.7922 145.424 83.5762ZM152.425 58.5198C152.138 59.1918 151.85 59.7678 151.466 60.4398C150.795 59.4798 150.028 58.6158 149.26 57.8478C145.615 54.1997 140.532 51.8957 134.873 51.8957C134.298 51.8957 133.626 51.8957 133.051 51.9917C132.091 49.7837 130.749 47.8636 129.214 46.0396C130.269 44.4076 131.708 43.0636 133.338 42.0075C135.353 40.7595 137.75 40.0875 140.244 40.0875C143.889 40.0875 147.246 41.5275 149.644 43.9276C152.042 46.3276 153.48 49.6877 153.48 53.3357C153.48 55.1598 153.097 56.8878 152.425 58.5198Z" fill="white"/>
<path d="M165.853 27.7033C164.894 26.7433 163.36 26.7433 162.401 27.7033L157.125 32.9834C156.166 33.9434 156.166 35.4794 157.125 36.4395C158.084 37.3995 159.619 37.3995 160.578 36.4395L165.853 31.1594C166.813 30.1994 166.813 28.6633 165.853 27.7033Z" fill="white"/>
<path d="M140.244 17.1431C138.901 17.1431 137.75 18.1992 137.75 19.5432V27.0313C137.75 28.3753 138.901 29.5273 140.244 29.5273C141.586 29.5273 142.737 28.3753 142.737 27.0313V19.6392C142.737 18.2952 141.586 17.1431 140.244 17.1431Z" fill="white"/>
<path d="M123.267 32.9834L117.992 27.7033C117.129 26.7433 115.498 26.7433 114.539 27.7033C113.58 28.6633 113.58 30.1994 114.539 31.1594L119.814 36.4395C120.774 37.3995 122.308 37.3995 123.267 36.4395C124.226 35.4794 124.226 33.9434 123.267 32.9834Z" fill="white"/>
<path d="M174.006 50.9357H166.621C165.278 50.9357 164.127 52.0877 164.127 53.4317C164.127 54.7757 165.278 55.9278 166.621 55.9278H174.006C175.349 55.9278 176.5 54.7757 176.5 53.4317C176.5 51.9917 175.349 50.9357 174.006 50.9357Z" fill="white"/>
<path d="M165.853 75.6081L160.578 70.328C159.619 69.368 158.084 69.368 157.125 70.328C156.166 71.288 156.166 72.8241 157.125 73.7841L162.401 79.0642C163.36 80.0242 164.894 80.0242 165.853 79.0642C166.813 78.1041 166.813 76.5681 165.853 75.6081Z" fill="white"/>
</g>
<defs>
<clipPath id="clip0">
<rect width="108" height="108.098" fill="white" transform="translate(68.5 0.87085)"/>
</clipPath>
</defs>
</svg>
